<svg xmlns="http://www.w3.org/2000/svg" width="64" height="87" viewBox="0 0 64 87">
    <path fill="#FFF" fill-rule="evenodd" d="M59.135 73.812H48.221L34.4 36.496 47.168 2.023A1.5 1.5 0 1 0 44.354.98L32.798 32.172 21.244.98a1.5 1.5 0 1 0-2.814 1.043L31.197 36.49 17.19 74.301H5.827C2.85 74.3.48 76.371.062 79.337c-.413 2.921 1.268 5.527 4.086 6.338 1.14.328 2.33.495 3.538.495 5.073 0 9.39-2.948 10.943-7.032.12-.317 14.17-38.322 14.17-38.322s13.776 37.337 13.83 37.53c1.256 4.506 5.396 7.824 10.298 7.824h2.207A4.871 4.871 0 0 0 64 81.305v-2.627a4.87 4.87 0 0 0-4.865-4.866zM7.686 83.17a9.797 9.797 0 0 1-2.708-.378c-1.68-.482-2.107-1.883-1.944-3.033.16-1.133.987-2.457 2.793-2.457h10.24c-.008.035-.192.583-.198.661-1.075 3.012-4.337 5.207-8.183 5.207zm53.313-1.864a1.866 1.866 0 0 1-1.864 1.864h-2.208c-3.629 0-6.677-2.527-7.48-5.914-.012-.102-.085-.396-.094-.44h9.782c1.028 0 1.864.835 1.864 1.863v2.627zm-28.79-10.233a6.125 6.125 0 0 1 6.117 6.118c0 2.855-1.967 5.26-4.617 5.93v3.074h-3.001V83.12c-2.65-.671-4.618-3.076-4.618-5.931a6.124 6.124 0 0 1 6.118-6.118zm0 9.557a3.12 3.12 0 0 0 3.116-3.116 3.12 3.12 0 0 0-3.117-3.117 3.12 3.12 0 0 0-3.116 3.117 3.12 3.12 0 0 0 3.116 3.116z"/>
</svg>
