<svg xmlns="http://www.w3.org/2000/svg" width="29" height="29" viewBox="0 0 29 29">
    <g fill="none" fill-rule="evenodd">
        <circle cx="14.5" cy="14.5" r="14.5" fill="#F9F9F9"/>
        <path fill="#000" fill-opacity=".3" fill-rule="nonzero" d="M12.002 14.348a4.105 4.105 0 0 1-1.582-3.245C10.42 8.837 12.247 7 14.5 7s4.08 1.837 4.08 4.103c0 1.32-.62 2.494-1.582 3.245 2.072 1.03 3.502 3.304 3.502 5.928 0 .4-.322.724-.72.724a.722.722 0 0 1-.72-.724c0-2.813-2.056-5.07-4.56-5.07-2.504 0-4.56 2.257-4.56 5.07 0 .4-.322.724-.72.724a.722.722 0 0 1-.72-.724c0-2.624 1.43-4.897 3.502-5.928zm2.498-.59a2.648 2.648 0 0 0 2.64-2.655 2.648 2.648 0 0 0-2.64-2.655 2.648 2.648 0 0 0-2.64 2.655 2.648 2.648 0 0 0 2.64 2.656z"/>
    </g>
</svg>
