<svg xmlns="http://www.w3.org/2000/svg" width="387" height="157" viewBox="0 0 387 157">
    <path fill="#FFF" fill-rule="evenodd" d="M108.379 88.52c0 13.885.323 24.057.969 30.515-2.826-.726-11.1-1.13-24.825-1.21v38.316H64.664v-38.438H0v-5.207L80.527 0h3.996v101.113h3.028c4.52 0 7.87-.383 10.05-1.15 2.18-.767 3.714-1.998 4.602-3.693.888-1.696 1.534-4.28 1.938-7.75h4.238zM64.664 40.395l-50.012 70.718h50.012V40.395zm150.52-27.725c11.15 2.988 20.413 8.27 27.785 15.845 7.373 7.575 12.26 16.783 14.663 27.623 2.403 10.84 1.932 22.498-1.41 34.975-3.407 12.71-9.032 23.489-16.877 32.335-7.844 8.847-17.126 14.947-27.845 18.302-10.72 3.354-22.005 3.443-33.858.267-11.073-2.967-20.315-8.243-27.727-15.829-7.412-7.585-12.333-16.823-14.764-27.712-2.431-10.89-1.954-22.65 1.43-35.283 3.386-12.633 8.951-23.344 16.697-32.133 7.746-8.79 16.998-14.857 27.756-18.2 10.758-3.344 22.141-3.407 34.15-.19zm-19.677 1.69c-7.104 0-13.421 2.542-18.951 7.628-5.53 5.086-9.83 12.453-12.897 22.1-3.068 9.647-4.601 21.09-4.601 34.33 0 14.208 1.695 25.934 5.086 35.178 3.39 9.243 7.971 15.984 13.744 20.222 5.772 4.239 12.25 6.358 19.435 6.358 7.104 0 13.421-2.563 18.951-7.69 5.53-5.126 9.83-12.533 12.897-22.22 3.068-9.688 4.601-21.151 4.601-34.391 0-14.128-1.695-25.793-5.086-34.996-3.39-9.203-7.971-15.924-13.744-20.162-5.772-4.239-12.25-6.358-19.435-6.358zM385.38 88.52c0 13.885.323 24.057.969 30.515-2.826-.726-11.1-1.13-24.825-1.21v38.316h-19.86v-38.438h-64.663v-5.207L357.529 0h3.996v101.113h3.028c4.52 0 7.87-.383 10.05-1.15 2.18-.767 3.714-1.998 4.602-3.693.888-1.696 1.534-4.28 1.937-7.75h4.239zm-41.715-48.125l-50.012 70.718h50.012V40.395z"/>
</svg>
