<svg xmlns="http://www.w3.org/2000/svg" xmlns:xlink="http://www.w3.org/1999/xlink" width="70" height="55" viewBox="0 0 70 55"><defs><path id="a" d="M0 0h1440v546H0z"/></defs><g fill="none" fill-rule="evenodd"><use transform="translate(-685 -99)" xlink:href="#a"/><ellipse cx="24.547" cy="12.5" stroke="#FFF" stroke-width="2" rx="10.953" ry="10.989"/><path stroke="#FFF" stroke-width="2" d="M47.686 53.487c0-13.8-10.402-24.987-23.233-24.987C11.622 28.5 1.22 39.687 1.22 53.487h46.466z"/><path stroke="#FFF" stroke-width="2" d="M69 53.487c0-10.74-8.681-19.446-19.39-19.446-10.709 0-19.39 8.706-19.39 19.446H69z"/><ellipse cx="8.656" cy="8.44" fill="#FFF" rx="8.375" ry="8.402" transform="translate(41.844 11.08)"/><path fill="#FFF" d="M41 37l-7 5-2 5-2 7 17-1-1-8-2-4z"/></g></svg>