<svg xmlns="http://www.w3.org/2000/svg" width="369" height="79" viewBox="0 0 369 79">
    <path fill="#FFF" fill-rule="evenodd" d="M22.939 66.922c0 2.63.289 4.54.867 5.73.58 1.192 1.674 2.034 3.286 2.527 1.612.493 4.195.74 7.75.74.248 0 .372.246.372.74 0 .492-.124.739-.372.739-3.39 0-6.035-.041-7.936-.123L16.12 77.15l-9.051.124c-1.654.082-3.886.123-6.696.123-.248 0-.372-.247-.372-.74s.124-.74.372-.74c2.645 0 4.567-.205 5.766-.615 1.198-.411 2.004-1.212 2.417-2.404.414-1.191.62-3.02.62-5.484V10.353c0-2.465-.206-4.273-.62-5.423-.413-1.15-1.24-1.952-2.48-2.403-1.24-.452-3.14-.678-5.703-.678-.248 0-.372-.247-.372-.74S.124.37.372.37l6.572.124c3.802.164 6.82.246 9.051.246 1.984 0 4.34-.123 7.068-.37C24.137.289 25.5.206 27.154.124 28.807.041 30.71 0 32.858 0c8.431 0 15.086 1.746 19.963 5.238 4.877 3.492 7.315 8.894 7.315 16.207 0 5.094-1.322 9.407-3.968 12.94-2.645 3.533-6.055 6.204-10.229 8.011-4.174 1.808-8.452 2.712-12.833 2.712-2.232 0-4.175-.206-5.828-.617-.165 0-.248-.205-.248-.616 0-.246.062-.493.186-.74.124-.246.269-.328.434-.246 1.24.329 2.645.493 4.216.493 3.802 0 6.964-1.766 9.485-5.3 2.521-3.532 3.782-8.544 3.782-15.035S43.75 11.544 40.98 8.01c-2.769-3.533-6.799-5.3-12.089-5.3-2.314 0-3.885.534-4.712 1.603-.826 1.068-1.24 3.163-1.24 6.285v56.323zm87.042 2.342c.165 0 .351.164.558.493.206.328.227.575.062.74-3.059 2.957-6.158 5.093-9.3 6.408-3.14 1.314-6.571 1.972-10.29 1.972-5.209 0-9.714-1.089-13.516-3.266-3.802-2.178-6.696-5.094-8.68-8.75-1.983-3.657-2.975-7.58-2.975-11.77 0-4.766 1.24-9.182 3.72-13.25 2.48-4.066 5.868-7.27 10.167-9.612 4.298-2.342 9.093-3.513 14.383-3.513 5.125 0 9.051 1.089 11.78 3.266 2.727 2.177 4.09 5.156 4.09 8.935 0 2.383-.454 3.574-1.363 3.574h-7.564l-22.318.247c-.248 1.561-.372 3.286-.372 5.176 0 7.066 1.674 12.653 5.022 16.762 3.347 4.108 7.956 6.162 13.825 6.162 2.066 0 4.215-.288 6.447-.863s4.257-1.438 6.076-2.588l.248-.123zM89.522 31.18c-2.48 0-4.629.986-6.447 2.958-1.819 1.972-3.142 4.683-3.968 8.134l17.607-.37c-.248-7.148-2.645-10.722-7.192-10.722zm38.81 4.56c0 2.383.847 4.437 2.541 6.162 1.695 1.726 4.154 3.533 7.378 5.423 3.141 1.808 5.476 3.225 7.006 4.252 1.529 1.027 2.913 2.465 4.153 4.314 1.24 1.848 1.86 4.087 1.86 6.716 0 2.794-.702 5.423-2.108 7.888-1.405 2.465-3.513 4.457-6.323 5.977-2.81 1.52-6.159 2.28-10.044 2.28-4.546 0-8.844-1.109-12.895-3.327-.496-.493-.744-.986-.744-1.479l-.248-12.201c0-.247.228-.39.682-.432.455-.04.724.02.806.185 1.323 4.108 3.513 7.6 6.572 10.476 3.058 2.876 6.158 4.314 9.3 4.314 1.735 0 3.12-.534 4.153-1.603 1.033-1.068 1.55-2.629 1.55-4.683 0-3.04-.868-5.443-2.604-7.21-1.736-1.766-4.298-3.594-7.688-5.484-2.893-1.561-5.083-2.835-6.571-3.82-1.488-.987-2.81-2.383-3.968-4.191-1.157-1.808-1.736-4.026-1.736-6.655 0-4.848 1.736-8.401 5.208-10.66 3.472-2.26 7.729-3.39 12.771-3.39 1.901 0 3.616.123 5.146.37 1.529.246 3.244.739 5.145 1.478.744.247 1.116.699 1.116 1.356 0 2.054-.041 3.656-.124 4.807l-.124 6.162c0 .246-.248.37-.744.37s-.744-.124-.744-.37c0-1.561-.66-3.266-1.983-5.115-1.323-1.848-3.038-3.43-5.146-4.745-2.108-1.314-4.278-1.972-6.51-1.972-3.389 0-5.083 1.603-5.083 4.807zm67.327 33.03c.33 0 .6.164.806.493.207.328.186.575-.062.74-3.058 3.04-6.034 5.278-8.927 6.716a20.348 20.348 0 0 1-9.176 2.157c-3.637 0-6.736-.863-9.299-2.588-2.563-1.726-3.844-4.643-3.844-8.75V40.177c0-2.547-.454-4.314-1.364-5.3-.909-.986-2.562-1.479-4.96-1.479-.082 0-.185-.123-.31-.37a1.633 1.633 0 0 1-.185-.739c0-.328.041-.596.124-.8.082-.206.206-.309.372-.309 4.215-.164 7.625-1.068 10.229-2.711 2.604-1.644 4.608-4.15 6.014-7.518.165-.329.516-.493 1.054-.493.537 0 .805.164.805.493v9.86c4.795-.083 10.168-.453 16.12-1.11.165 0 .35.308.557.924.207.617.31 1.294.31 2.034 0 .822-.144 1.623-.434 2.403-.289.78-.599 1.13-.93 1.048-5.373-1.15-10.58-1.767-15.623-1.849v29.21c0 3.121.806 5.422 2.418 6.9 1.612 1.48 3.74 2.22 6.386 2.22 3.306 0 6.53-1.233 9.671-3.698l.248-.123zM226.533 79c-5.125 0-9.61-1.17-13.453-3.512-3.844-2.342-6.799-5.505-8.865-9.49-2.067-3.985-3.1-8.32-3.1-13.003 0-5.34 1.364-9.88 4.092-13.618 2.727-3.739 6.2-6.532 10.415-8.38 4.216-1.85 8.555-2.774 13.02-2.774 5.124 0 9.588 1.191 13.39 3.574 3.803 2.383 6.716 5.526 8.742 9.428 2.025 3.903 3.037 8.073 3.037 12.51 0 4.93-1.24 9.305-3.72 13.125-2.48 3.821-5.806 6.8-9.98 8.936-4.175 2.136-8.7 3.204-13.578 3.204zm3.72-2.588c3.224 0 5.683-1.582 7.378-4.745 1.694-3.163 2.541-7.703 2.541-13.619 0-5.751-.744-10.68-2.231-14.789-1.488-4.108-3.43-7.21-5.828-9.305-2.397-2.095-4.96-3.143-7.688-3.143-6.613 0-9.919 5.875-9.919 17.624 0 5.505.703 10.373 2.108 14.605 1.405 4.231 3.306 7.518 5.704 9.86 2.397 2.341 5.042 3.512 7.935 3.512zm83.819-46.587c.165 0 .248.247.248.74s-.083.74-.248.74c-2.398 0-4.526.903-6.386 2.71-1.86 1.808-3.616 4.602-5.27 8.381l-15.25 35.002c-.083.41-.538.616-1.365.616-.66 0-1.116-.205-1.363-.616l-18.971-37.343c-1.736-3.616-3.265-5.978-4.588-7.087-1.323-1.11-2.934-1.664-4.836-1.664-.248 0-.372-.246-.372-.74 0-.492.124-.739.372-.739 1.488 0 2.728.041 3.72.124l8.308.123 9.547-.123c1.405-.083 3.348-.124 5.828-.124.248 0 .372.247.372.74s-.124.74-.372.74c-4.795 0-7.192.944-7.192 2.834 0 .493.207 1.15.62 1.972l13.887 25.881 8.184-19.719c.66-1.725.991-3.204.991-4.437 0-2.054-.702-3.656-2.107-4.806-1.406-1.15-3.348-1.726-5.828-1.726-.165 0-.248-.246-.248-.74 0-.492.083-.739.248-.739 2.232 0 3.926.041 5.084.124l7.44.123 4.959-.123c.992-.083 2.521-.124 4.588-.124zM341.722 79c-5.125 0-9.61-1.17-13.453-3.512-3.844-2.342-6.8-5.505-8.866-9.49-2.066-3.985-3.1-8.32-3.1-13.003 0-5.34 1.364-9.88 4.092-13.618 2.728-3.739 6.2-6.532 10.415-8.38 4.216-1.85 8.556-2.774 13.02-2.774 5.125 0 9.588 1.191 13.39 3.574 3.803 2.383 6.717 5.526 8.742 9.428 2.025 3.903 3.038 8.073 3.038 12.51 0 4.93-1.24 9.305-3.72 13.125-2.48 3.821-5.807 6.8-9.981 8.936-4.175 2.136-8.7 3.204-13.577 3.204zm3.72-2.588c3.223 0 5.682-1.582 7.377-4.745 1.695-3.163 2.542-7.703 2.542-13.619 0-5.751-.744-10.68-2.232-14.789-1.488-4.108-3.43-7.21-5.828-9.305-2.397-2.095-4.96-3.143-7.687-3.143-6.613 0-9.92 5.875-9.92 17.624 0 5.505.703 10.373 2.108 14.605 1.406 4.231 3.307 7.518 5.704 9.86 2.397 2.341 5.042 3.512 7.936 3.512z"/>
</svg>
